<svg width="4445" height="400" viewBox="0 0 4445 400" fill="none" xmlns="http://www.w3.org/2000/svg">
<g clip-path="url(#clip0_290_123)">
<path d="M32.8962 372.754C14.4281 354.783 3.46275 334.493 0 313.044C17.8909 354.203 47.3243 375.073 88.8773 375.073C113.694 375.073 134.47 365.797 151.207 347.826C167.944 329.275 176.023 303.188 176.023 268.986V13.913H78.4891V0H245.278V277.681C245.278 317.101 232.582 347.246 207.765 368.696C182.949 389.565 152.361 400.58 115.425 400.58C78.4891 400.58 50.7871 391.304 32.8962 373.333V372.754Z" fill="black"/>
<path d="M315.111 376.232C295.489 360.58 286.255 340.29 286.255 316.522C286.255 295.652 292.026 279.42 303.569 267.246C315.111 255.072 328.962 246.377 344.545 240.58C360.127 234.782 380.326 229.565 405.72 224.348C424.765 220.869 439.193 217.391 449.004 214.493C458.815 211.594 466.318 207.536 471.512 202.319C468.049 177.971 460.547 158.84 448.427 145.507C436.308 132.174 420.148 125.797 399.371 125.797C380.903 125.797 364.744 131.594 350.316 142.609C335.888 153.623 324.922 168.695 316.265 187.826C319.728 166.377 330.116 146.666 347.43 128.116C364.744 109.565 389.56 100.869 423.034 100.869C456.507 100.869 485.363 111.304 508.448 132.753C530.956 153.623 542.499 184.348 542.499 223.768V397.101H473.244V228.985C473.244 222.609 473.244 213.913 472.089 204.058C468.049 212.753 461.701 219.71 454.198 224.927C446.119 230.145 435.153 236.522 420.148 243.478C406.297 249.855 395.332 255.652 387.252 260.869C379.172 266.087 372.247 273.043 367.052 281.159C361.281 289.855 358.973 300.29 358.973 313.043C358.973 330.435 364.167 344.348 374.555 353.623C384.943 362.898 397.64 367.536 412.068 367.536C425.342 367.536 438.039 363.478 449.581 355.942C461.124 347.826 469.204 337.391 473.244 324.058C469.781 348.985 461.124 368.116 446.696 381.449C432.268 394.782 412.645 401.159 388.406 401.159C359.55 401.159 335.888 393.043 316.265 377.391L315.111 376.232Z" fill="black"/>
<path d="M586.359 104.348H655.614V396.522H586.359V104.348ZM786.045 152.464C773.348 134.493 755.457 125.797 731.795 125.797C713.904 125.797 698.899 131.014 686.779 142.029C674.66 153.043 664.271 168.116 655.614 187.826C656.769 175.072 661.386 161.739 668.888 148.406C676.391 135.072 687.356 124.058 701.785 114.782C716.213 105.507 734.104 100.869 755.457 100.869C789.508 100.869 817.787 111.304 840.872 132.753C863.38 153.623 874.922 184.348 874.922 223.768V397.101H805.667V228.985C805.667 196.522 799.319 171.594 786.622 153.623L786.045 152.464Z" fill="black"/>
<path d="M1114.43 358.261C1128.86 347.246 1140.4 332.174 1148.48 313.043C1145.02 334.493 1134.63 354.203 1117.32 372.753C1100 391.304 1074.61 400 1041.13 400C1004.2 400 974.188 389.565 950.526 368.695C926.864 347.826 915.321 317.681 915.321 277.681V223.188C915.321 183.188 926.287 153.043 948.795 132.174C971.303 111.304 1000.16 100.869 1035.94 100.869C1071.72 100.869 1102.31 108.985 1123.66 125.217C1145.02 141.449 1155.98 165.217 1155.98 197.101C1155.98 221.449 1149.06 242.319 1135.78 258.551C1121.93 274.782 1105.2 287.536 1084.42 295.652C1063.64 303.768 1043.44 307.826 1022.67 307.826C1008.24 307.826 996.696 306.087 987.462 303.188C1018.63 303.188 1042.87 293.913 1060.76 274.203C1078.65 254.493 1087.3 226.087 1087.3 189.565C1087.3 165.217 1083.26 147.246 1074.61 134.493C1065.95 121.739 1053.83 115.942 1037.67 115.942C1021.51 115.942 1008.24 124.058 999.004 139.71C989.77 155.362 985.731 177.971 985.731 208.116V274.203C985.731 284.638 986.308 295.072 988.039 304.348C991.502 327.536 1000.16 345.507 1012.86 357.681C1025.55 370.435 1042.29 376.232 1063.64 376.232C1083.26 376.232 1100.58 370.435 1115.01 359.42L1114.43 358.261Z" fill="black"/>
<path d="M1244.86 366.377C1221.78 344.348 1209.66 309.565 1209.66 262.609V117.681H1187.73V103.768H1209.66V0H1278.91V104.348H1344.7V118.261H1278.91V271.884C1278.91 311.304 1285.84 339.71 1299.69 356.522C1313.54 373.913 1332.01 382.029 1354.51 382.029C1365.48 382.029 1374.71 380.29 1381.06 377.391C1387.99 373.913 1394.34 370.435 1400.11 365.797C1395.49 375.652 1387.41 383.768 1376.45 390.145C1364.9 396.522 1349.9 400 1330.85 400C1296.8 400 1267.95 388.986 1244.86 366.377Z" fill="black"/>
<path d="M1912.59 104.348H1981.85V396.522H1912.59V104.348ZM2041.87 124.638C2069.57 108.985 2104.2 100.869 2144.6 100.869L2112.86 170.435C2095.54 165.797 2077.65 163.478 2060.34 163.478C2043.6 163.478 2028.6 165.217 2014.17 169.275C1999.74 173.333 1989.35 179.13 1981.85 187.826C1993.97 161.159 2013.59 140.29 2041.87 124.638Z" fill="black"/>
<path d="M2163.64 376.232C2144.02 360.58 2134.79 340.29 2134.79 316.522C2134.79 295.652 2140.56 279.42 2152.1 267.246C2163.64 255.072 2177.49 246.377 2193.08 240.58C2208.66 234.782 2228.86 229.565 2254.25 224.348C2273.3 220.869 2287.73 217.391 2297.54 214.493C2307.35 211.594 2314.85 207.536 2320.04 202.319C2316.58 177.971 2309.08 158.84 2296.96 145.507C2284.84 132.174 2268.68 125.797 2247.9 125.797C2229.44 125.797 2213.28 131.594 2198.85 142.609C2184.42 153.623 2173.45 168.695 2164.8 187.826C2168.26 166.377 2178.65 146.666 2195.96 128.116C2213.28 109.565 2238.09 100.869 2271.57 100.869C2305.04 100.869 2333.9 111.304 2356.98 132.753C2379.49 153.623 2391.03 184.348 2391.03 223.768V397.101H2321.78V228.985C2321.78 222.609 2321.78 213.913 2320.62 204.058C2316.58 212.753 2310.23 219.71 2302.73 224.927C2294.65 230.145 2283.69 236.522 2268.68 243.478C2254.83 249.855 2243.86 255.652 2235.78 260.869C2227.7 266.087 2220.78 273.043 2215.58 281.159C2209.81 289.855 2207.5 300.29 2207.5 313.043C2207.5 330.435 2212.7 344.348 2223.09 353.623C2233.48 362.898 2246.17 367.536 2260.6 367.536C2273.87 367.536 2286.57 363.478 2298.11 355.942C2309.66 347.826 2317.74 337.391 2321.78 324.058C2318.31 348.985 2309.66 368.116 2295.23 381.449C2280.8 394.782 2261.18 401.159 2236.94 401.159C2208.08 401.159 2184.42 393.043 2164.8 377.391L2163.64 376.232Z" fill="black"/>
<path d="M2434.89 104.348H2504.15V396.522H2434.89V104.348ZM2634.58 152.464C2621.88 134.493 2603.99 125.797 2580.33 125.797C2562.44 125.797 2547.43 131.014 2535.31 142.029C2523.19 153.043 2512.81 168.116 2504.15 187.826C2505.3 175.072 2509.92 161.739 2517.42 148.406C2524.92 135.072 2535.89 124.058 2550.32 114.782C2564.75 105.507 2582.64 100.869 2603.99 100.869C2638.04 100.869 2666.32 111.304 2689.41 132.753C2711.91 153.623 2723.46 184.348 2723.46 223.768V397.101H2654.2V228.985C2654.2 196.522 2647.85 171.594 2635.16 153.623L2634.58 152.464Z" fill="black"/>
<path d="M2811.18 366.377C2788.09 344.348 2775.97 309.565 2775.97 262.609V117.681H2754.04V103.768H2775.97V0H2845.23V104.348H2911.02V118.261H2845.23V271.884C2845.23 311.304 2852.15 339.71 2866.01 356.522C2879.86 373.913 2898.32 382.029 2920.83 382.029C2931.8 382.029 2941.03 380.29 2947.38 377.391C2954.31 373.913 2960.65 370.435 2966.43 365.797C2961.81 375.652 2953.73 383.768 2942.76 390.145C2931.22 396.522 2916.22 400 2897.17 400C2863.12 400 2834.26 388.986 2811.18 366.377Z" fill="black"/>
<path d="M2974.51 329.855H3043.76C3043.76 347.826 3049.53 361.739 3061.65 371.594C3073.77 381.45 3087.62 386.087 3103.78 386.087C3118.79 386.087 3132.06 382.029 3143.03 373.334C3153.99 364.638 3159.76 353.044 3159.76 337.971C3159.76 327.537 3156.3 318.841 3149.37 311.884C3142.45 304.928 3133.79 298.551 3123.98 293.913C3113.59 289.276 3099.16 283.479 3080.12 276.522C3057.03 268.406 3037.99 260.87 3023.56 253.334C3009.13 245.797 2996.44 235.942 2986.05 223.189C2975.66 210.435 2970.47 194.783 2970.47 175.652C2970.47 149.566 2981.43 130.435 3003.94 118.261C3026.45 106.087 3057.03 99.7104 3096.28 99.7104C3141.3 99.7104 3173.04 104.928 3192.66 115.363C3212.28 125.797 3221.52 141.45 3221.52 162.899H3152.26C3152.26 146.667 3146.49 134.493 3135.52 125.797C3124.56 117.102 3110.71 113.044 3094.55 113.044C3079.54 113.044 3066.85 117.102 3055.88 124.638C3044.92 132.174 3039.72 142.609 3039.72 155.363C3039.72 170.435 3046.07 182.029 3059.34 190.145C3072.62 198.261 3092.82 207.537 3119.94 216.812C3143.03 224.928 3162.07 232.464 3176.5 240C3191.5 247.537 3203.62 257.392 3214.01 269.566C3224.4 281.739 3229.02 297.392 3229.02 315.942C3229.02 371.015 3185.73 398.841 3099.74 398.841C3013.75 398.841 2974.51 375.652 2974.51 328.696V329.855Z" fill="black"/>
<path d="M3304.62 368.116C3282.11 347.247 3270.57 316.522 3270.57 277.102V222.609C3270.57 183.189 3282.11 153.044 3304.62 131.595C3327.13 110.725 3355.41 99.7104 3390.04 99.7104C3424.66 99.7104 3448.33 108.986 3465.64 126.957C3482.95 145.508 3493.34 165.218 3496.8 186.667C3488.72 167.537 3477.18 152.464 3462.75 141.45C3448.33 130.435 3432.17 124.638 3413.7 124.638C3390.04 124.638 3372.14 133.334 3359.45 151.305C3346.75 169.276 3340.4 194.203 3340.4 226.667V271.305C3340.4 303.768 3346.75 328.696 3359.45 346.667C3372.14 364.638 3390.04 373.334 3413.7 373.334C3432.17 373.334 3448.33 367.537 3462.75 356.522C3477.18 345.508 3488.15 330.435 3496.8 311.305C3493.34 332.754 3482.95 352.464 3465.64 371.015C3448.33 389.566 3423.51 398.261 3390.04 398.261C3356.56 398.261 3327.71 387.826 3304.62 366.377V368.116Z" fill="black"/>
<path d="M3541.82 0H3611.07V396.522H3541.82V0ZM3741.51 152.464C3728.81 134.493 3710.92 125.797 3687.26 125.797C3669.36 125.797 3654.36 131.015 3642.24 142.029C3630.12 153.043 3619.73 168.116 3611.07 187.826C3612.23 175.072 3616.85 161.739 3624.35 148.406C3631.85 135.072 3642.82 124.058 3657.24 114.783C3671.67 105.507 3689.56 100.87 3710.92 100.87C3744.97 100.87 3773.25 111.304 3796.33 132.754C3818.84 153.623 3830.38 184.348 3830.38 223.768V397.101H3761.13V228.986C3761.13 196.522 3754.78 171.594 3742.08 153.623L3741.51 152.464Z" fill="black"/>
<path d="M4069.89 358.261C4084.32 347.246 4095.86 332.174 4103.94 313.043C4100.48 334.493 4090.09 354.203 4072.78 372.753C4055.46 391.304 4030.07 400 3996.6 400C3959.66 400 3929.65 389.565 3905.99 368.695C3882.32 347.826 3870.78 317.681 3870.78 277.681V223.188C3870.78 183.188 3881.75 153.043 3904.26 132.174C3926.76 111.304 3955.62 100.869 3991.4 100.869C4027.18 100.869 4057.77 108.985 4079.12 125.217C4100.48 141.449 4111.44 165.217 4111.44 197.101C4111.44 221.449 4104.52 242.319 4091.24 258.551C4077.39 274.782 4060.66 287.536 4039.88 295.652C4019.1 303.768 3998.9 307.826 3978.13 307.826C3963.7 307.826 3952.16 306.087 3942.92 303.188C3974.09 303.188 3998.33 293.913 4016.22 274.203C4034.11 254.493 4042.77 226.087 4042.77 189.565C4042.77 165.217 4038.73 147.246 4030.07 134.493C4021.41 121.739 4009.29 115.942 3993.13 115.942C3976.97 115.942 3963.7 124.058 3954.46 139.71C3945.23 155.362 3941.19 177.971 3941.19 208.116V274.203C3941.19 284.638 3941.77 295.072 3943.5 304.348C3946.96 327.536 3955.62 345.507 3968.32 357.681C3981.01 370.435 3997.75 376.232 4019.1 376.232C4038.73 376.232 4056.04 370.435 4070.47 359.42L4069.89 358.261Z" fill="black"/>
<path d="M4156.46 104.348H4225.71V396.522H4156.46V104.348ZM4356.14 152.464C4343.45 134.493 4325.56 125.797 4301.89 125.797C4284 125.797 4269 131.014 4256.88 142.029C4244.76 153.043 4234.37 168.116 4225.71 187.826C4226.87 175.072 4231.49 161.739 4238.99 148.406C4246.49 135.072 4257.46 124.058 4271.88 114.782C4286.31 105.507 4304.2 100.869 4325.56 100.869C4359.61 100.869 4387.89 111.304 4410.97 132.753C4433.48 153.623 4445.02 184.348 4445.02 223.768V397.101H4375.77V228.985C4375.77 196.522 4369.42 171.594 4356.72 153.623L4356.14 152.464Z" fill="black"/>
<path d="M1841.61 222.029C1841.61 222.029 1841.03 222.029 1841.03 221.449L1802.36 187.826L1820.83 165.797C1834.68 150.725 1845.07 129.855 1845.07 102.029C1845.07 98.5507 1845.07 95.0725 1844.49 92.1739C1845.07 91.5942 1845.07 91.0145 1844.49 90.4348C1841.03 57.3913 1822.56 33.0435 1791.4 18.5507C1790.24 18.5507 1789.09 17.3913 1787.94 16.8116C1757.35 5.7971 1714.64 0 1659.81 0H1590.56V317.681L1614.8 288.116L1617.11 285.217L1651.16 243.478L1659.81 233.043L1668.47 222.029L1691.56 194.203L1710.6 171.594L1709.45 170.435H1711.18V171.594L1735.42 193.623L1727.34 203.478L1673.66 268.406L1710.02 300.29L1768.31 226.087L1771.78 222.029C1791.4 238.261 1806.98 254.493 1805.83 282.319C1802.94 335.652 1772.93 350.725 1757.93 358.841C1729.07 374.493 1590.56 372.754 1590.56 372.754V396.522H1659.81C1767.74 396.522 1785.63 388.985 1819.1 371.594C1843.92 358.841 1857.77 337.971 1864.69 314.783C1866.42 307.246 1867.58 298.551 1867.58 289.855V288.116C1867.58 258.551 1856.61 237.101 1841.61 222.029ZM1775.24 144.348C1775.24 144.348 1771.2 150.145 1768.89 152.464L1766 155.942H1765.43L1749.27 141.449L1741.19 133.913L1726.18 121.159L1659.81 201.159V13.913C1692.71 15.6522 1719.83 22.6087 1741.19 33.6232C1753.31 40 1761.96 48.6956 1767.16 59.1304C1779.28 74.7826 1783.9 93.913 1783.9 112.464C1783.9 125.797 1780.43 136.232 1775.24 144.348Z" fill="black"/>
</g>
<defs>
<clipPath id="clip0_290_123">
<rect width="4444.44" height="400" fill="white"/>
</clipPath>
</defs>
</svg>
