<?xml version="1.0" encoding="UTF-8"?> <svg xmlns="http://www.w3.org/2000/svg" width="192" height="65" viewBox="0 0 192 65" fill="none"><g clip-path="url(#clip0_2475_410)"><path d="M16.8472 9.09998V24.0738H0V28.0292H16.8472V44.3902H21.2538V9.09998H16.8472Z" fill="#005CA9"></path><path d="M32.8996 9.1H25.1802V13.0555H32.8996C34.9691 13.0555 36.6924 13.6896 38.0065 14.95C39.3206 16.2024 39.9815 17.8116 39.9815 19.7457C39.9815 21.6799 39.3206 23.2811 38.0065 24.5256C36.6845 25.7701 34.9691 26.4043 32.8917 26.4043H25.1724V30.3598H32.8917C36.3068 30.3598 39.1002 29.3689 41.2012 27.411C43.3101 25.453 44.3802 22.8689 44.3802 19.7378C44.3802 16.6067 43.3101 14.0067 41.2012 12.0409C39.1002 10.0829 36.2989 9.09207 32.8917 9.09207L32.8996 9.1ZM52.6268 5.14451V0H48.7002V5.14451H43.7901V9.1H48.7002V14.2445H52.6268V9.1H57.537V5.14451H52.6268Z" fill="#EF7D00"></path><path d="M48.7004 28.1006H49.928V32.0561H55.0034V28.1006H56.2309V37.5018H55.0034V33.1817H49.928V37.5018H48.7004V28.1006Z" fill="#3C3C3B"></path><path d="M66.3895 27.9579C69.0963 27.9579 71.1344 30.0744 71.1344 32.8012C71.1344 35.5281 69.0963 37.6445 66.3895 37.6445C63.6826 37.6445 61.6445 35.5281 61.6445 32.8012C61.6445 30.0744 63.6826 27.9579 66.3895 27.9579ZM66.3895 36.5031C68.4275 36.5031 69.9068 34.8701 69.9068 32.8012C69.9068 30.7323 68.4275 29.0994 66.3895 29.0994C64.3514 29.0994 62.8721 30.7323 62.8721 32.8012C62.8721 34.8701 64.3514 36.5031 66.3895 36.5031Z" fill="#3C3C3B"></path><path d="M78.7121 29.2183H75.5803V28.1006H83.0636V29.2183H79.9318V37.5018H78.7043V29.2183H78.7121Z" fill="#3C3C3B"></path><path d="M88.2334 28.1006H93.6236V29.2183H89.4609V32.0719H93.1042V33.15H89.4609V36.3841H93.7416V37.5018H88.2413V28.1006H88.2334Z" fill="#3C3C3B"></path><path d="M99.1948 28.1006H100.422V36.3841H104.829V37.5018H99.1948V28.1006Z" fill="#3C3C3B"></path><path d="M110.109 28.1006H112.548C113.54 28.1006 114.492 28.1402 115.302 28.592C116.113 29.0439 116.656 29.8128 116.656 30.9146C116.656 32.0164 116.136 32.7933 115.397 33.253C114.586 33.7445 113.5 33.7841 112.304 33.7841H111.336V37.4939H110.109V28.0927V28.1006ZM112.454 32.714C113.548 32.714 114.169 32.6744 114.681 32.3652C115.145 32.0798 115.428 31.6122 115.428 30.978C115.428 30.2805 115.09 29.7969 114.563 29.5274C113.996 29.242 113.312 29.2262 112.438 29.2262H111.329V32.714H112.446H112.454Z" fill="#3C3C3B"></path><path d="M124.304 28.1006H125.477L129.333 37.5018H128.018L126.972 34.878H122.77L121.716 37.5018H120.464L124.304 28.1006ZM123.195 33.8H126.547L125.784 31.85C125.485 31.0969 125.178 30.2963 124.895 29.5274H124.871C124.588 30.2963 124.281 31.0811 123.958 31.8896L123.195 33.8Z" fill="#3C3C3B"></path><path d="M134.298 28.1006H136.824C137.768 28.1006 138.665 28.1402 139.428 28.5683C140.199 28.9963 140.719 29.7256 140.719 30.764C140.719 31.8024 140.231 32.5396 139.523 32.9677C139.184 33.1738 138.838 33.2927 138.452 33.3561L141.443 37.4939H139.963L137.115 33.467H135.533V37.4939H134.305V28.0927L134.298 28.1006ZM137.107 32.4603C137.933 32.4603 138.507 32.3573 138.94 32.0323C139.286 31.7707 139.491 31.3823 139.491 30.867C139.491 30.2725 139.224 29.8048 138.728 29.5274C138.224 29.2579 137.634 29.2183 136.729 29.2183H135.517V32.4603H137.099H137.107Z" fill="#3C3C3B"></path><path d="M148.832 29.2183H145.7V28.1006H153.183V29.2183H150.051V37.5018H148.824V29.2183H148.832Z" fill="#3C3C3B"></path><path d="M158.345 37.5018V28.1006H159.502L163.405 33.3164C163.948 34.0299 164.491 34.767 165.018 35.5122L165.041 35.4963C165.026 34.6799 165.018 33.7286 165.018 32.825V28.1006H166.206V37.5018H165.049L161.146 32.286C160.603 31.5725 160.068 30.8353 159.533 30.0902L159.51 30.1061C159.525 30.9225 159.533 31.8738 159.533 32.7774V37.5018H158.345Z" fill="#3C3C3B"></path><path d="M172.155 28.1006H177.545V29.2183H173.382V32.0719H177.026V33.15H173.382V36.3841H177.663V37.5018H172.163V28.1006H172.155Z" fill="#3C3C3B"></path><path d="M183.116 28.1006H185.642C186.586 28.1006 187.483 28.1402 188.246 28.5683C189.018 28.9963 189.537 29.7256 189.537 30.764C189.537 31.8024 189.049 32.5396 188.341 32.9677C188.003 33.1738 187.656 33.2927 187.271 33.3561L190.261 37.4939H188.782L185.933 33.467H184.351V37.4939H183.124V28.0927L183.116 28.1006ZM185.925 32.4603C186.751 32.4603 187.334 32.3573 187.759 32.0323C188.105 31.7707 188.309 31.3823 188.309 30.867C188.309 30.2725 188.042 29.8048 187.546 29.5274C187.043 29.2579 186.452 29.2183 185.547 29.2183H184.336V32.4603H185.917H185.925Z" fill="#3C3C3B"></path></g><defs><clipPath id="clip0_2475_410"><rect width="192" height="65" fill="white"></rect></clipPath></defs></svg> 