<?xml version="1.0" encoding="utf-8"?>
<!-- Generator: Adobe Illustrator 28.0.0, SVG Export Plug-In . SVG Version: 6.00 Build 0)  -->
<svg version="1.1" id="Ebene_1" xmlns="http://www.w3.org/2000/svg" xmlns:xlink="http://www.w3.org/1999/xlink" x="0px" y="0px"
	 viewBox="0 0 219 56" style="enable-background:new 0 0 219 56;" xml:space="preserve">
<path d="M56.8,25.1v30h-6.9V49c-0.8,2.4-3.8,6.8-10.3,7c-9.9,0.3-15-6.9-15-13.4c0-8.2,6.9-13.4,15.1-13.4h6.1c2.4,0,4.3-2,4.1-4.6
	c-0.2-3.8-3.6-5.1-8.3-5.1c-3.3,0-6.2,1.4-7.4,4.2h-7.2c2.7-8.6,9.8-10.1,14.6-10.1C48.8,13.7,56.8,17.2,56.8,25.1L56.8,25.1z
	 M49.9,33.8c-1.6,0.6-3.4,1-5.3,1h-4.9c-4,0-8.3,2.2-8.3,7.9c0,4.1,3.2,7.4,8.3,7.4s10.2-3.3,10.2-7.4V33.8z"/>
<path d="M64.1,55V0.2H71V55H64.1z"/>
<path d="M113.4,36.1H83.1c0.5,9,5.7,13.9,11.9,14c4.8,0,9-3,10.9-8.5h6.8c-2.2,9.2-9,14.3-17.6,14.4c-10.6-0.1-18.4-7.7-18.4-21.2
	s8-21.2,18.4-21.2c10.4,0,18.4,7.8,18.4,21.2C113.4,35.2,113.4,35.7,113.4,36.1L113.4,36.1z M106.4,30.6c-1.3-6.7-5.9-11-11.5-11.1
	c-5.5,0.1-10.1,4.4-11.5,11.1H106.4z"/>
<path d="M125.6,14.5V55h-6.9V14.5H125.6z M151.5,28v27h-6.9V28c0-4.7-3.2-8.6-9.6-8.6c-5.9,0-9.6,3.9-9.6,8.6
	c0-7.5,4.7-13.9,10.5-14.4C145.3,12.9,151.5,20.6,151.5,28z"/>
<path d="M180.7,3.4c0-1.9,2-3.4,4.6-3.4c2.6,0,4.6,1.5,4.6,3.4s-2,3.4-4.6,3.4C182.7,6.9,180.7,5.3,180.7,3.4z M181.9,55V14.6h6.9
	V55H181.9z"/>
<path d="M204.5,14.6V55h-6.9V14.6H204.5z M218.5,14.4v6.4c0,0-1.9-0.9-5.4-0.9c-6.2,0-8.6,4.8-8.6,9.6c0-10.2,4.4-15.9,8.6-15.9
	C215,13.5,216.8,13.8,218.5,14.4z"/>
<path d="M20.9,20.1H7.7c-0.7,0-0.7,0.1,0,0.3c3.2,0.7,6.3,3,6.3,8.6v15.3c0.1,3,1.5,4,5.9,4h1V55h-1.2c-1.9,0-4,0-5.8-0.5
	c-3.3-1-5.4-3.6-6.3-6.4c-0.4-1.4-0.5-4.1-0.5-5.2V27.3c0-7.1-6.1-7.3-6.9-7.3v-5.5h6.9V0.1H14v14.4h6.9L20.9,20.1L20.9,20.1z"/>
<path d="M175.2,20.1h-13.2c-0.7,0-0.7,0.1,0,0.3c3.2,0.7,6.3,3,6.3,8.6v15.3c0.1,3,1.5,4,5.9,4h1V55h-1.2c-1.9,0-4,0-5.8-0.5
	c-3.3-1-5.4-3.6-6.3-6.4c-0.4-1.4-0.5-4.1-0.5-5.2V27.3c0-7.1-6.1-7.3-6.9-7.3v-5.5h6.9V0.1h6.9v14.4h6.9V20.1z"/>
</svg>
